<svg enable-background="new 0 0 48 48" viewBox="0 0 48 48" xmlns="http://www.w3.org/2000/svg"><path d="m40 16h-32v24c0 2.2 1.8 4 4 4h24c2.2 0 4-1.8 4-4z" fill="#616161"/><path d="m36 4h-24c-2.2 0-4 1.8-4 4v9h32v-9c0-2.2-1.8-4-4-4z" fill="#424242"/><path d="m36 14h-24c-.6 0-1-.4-1-1v-5c0-.6.4-1 1-1h24c.6 0 1 .4 1 1v5c0 .6-.4 1-1 1z" fill="#9ccc65"/><g fill="#33691e"><path d="m33 10h2v2h-2z"/><path d="m29 10h2v2h-2z"/></g><path d="m36 23h-3c-.6 0-1-.4-1-1v-2c0-.6.4-1 1-1h3c.6 0 1 .4 1 1v2c0 .6-.4 1-1 1z" fill="#ff5252"/><g fill="#e0e0e0"><path d="m15 23h-3c-.6 0-1-.4-1-1v-2c0-.6.4-1 1-1h3c.6 0 1 .4 1 1v2c0 .6-.4 1-1 1z"/><path d="m22 23h-3c-.6 0-1-.4-1-1v-2c0-.6.4-1 1-1h3c.6 0 1 .4 1 1v2c0 .6-.4 1-1 1z"/><path d="m29 23h-3c-.6 0-1-.4-1-1v-2c0-.6.4-1 1-1h3c.6 0 1 .4 1 1v2c0 .6-.4 1-1 1z"/><path d="m15 29h-3c-.6 0-1-.4-1-1v-2c0-.6.4-1 1-1h3c.6 0 1 .4 1 1v2c0 .6-.4 1-1 1z"/><path d="m22 29h-3c-.6 0-1-.4-1-1v-2c0-.6.4-1 1-1h3c.6 0 1 .4 1 1v2c0 .6-.4 1-1 1z"/><path d="m29 29h-3c-.6 0-1-.4-1-1v-2c0-.6.4-1 1-1h3c.6 0 1 .4 1 1v2c0 .6-.4 1-1 1z"/><path d="m15 35h-3c-.6 0-1-.4-1-1v-2c0-.6.4-1 1-1h3c.6 0 1 .4 1 1v2c0 .6-.4 1-1 1z"/><path d="m22 35h-3c-.6 0-1-.4-1-1v-2c0-.6.4-1 1-1h3c.6 0 1 .4 1 1v2c0 .6-.4 1-1 1z"/><path d="m29 35h-3c-.6 0-1-.4-1-1v-2c0-.6.4-1 1-1h3c.6 0 1 .4 1 1v2c0 .6-.4 1-1 1z"/><path d="m15 41h-3c-.6 0-1-.4-1-1v-2c0-.6.4-1 1-1h3c.6 0 1 .4 1 1v2c0 .6-.4 1-1 1z"/><path d="m22 41h-3c-.6 0-1-.4-1-1v-2c0-.6.4-1 1-1h3c.6 0 1 .4 1 1v2c0 .6-.4 1-1 1z"/><path d="m29 41h-3c-.6 0-1-.4-1-1v-2c0-.6.4-1 1-1h3c.6 0 1 .4 1 1v2c0 .6-.4 1-1 1z"/></g><g fill="#bdbdbd"><path d="m36 29h-3c-.6 0-1-.4-1-1v-2c0-.6.4-1 1-1h3c.6 0 1 .4 1 1v2c0 .6-.4 1-1 1z"/><path d="m36 35h-3c-.6 0-1-.4-1-1v-2c0-.6.4-1 1-1h3c.6 0 1 .4 1 1v2c0 .6-.4 1-1 1z"/><path d="m36 41h-3c-.6 0-1-.4-1-1v-2c0-.6.4-1 1-1h3c.6 0 1 .4 1 1v2c0 .6-.4 1-1 1z"/></g></svg>